<svg width="14" height="25" viewBox="0 0 14 25" fill="none" xmlns="http://www.w3.org/2000/svg">
<path d="M11.7188 0H1.5625C1.14827 0.000542615 0.751153 0.165337 0.458245 0.458245C0.165337 0.751153 0.000542615 1.14827 0 1.5625V22.6562C0.000542615 23.0705 0.165337 23.4676 0.458245 23.7605C0.751153 24.0534 1.14827 24.2182 1.5625 24.2188H11.7188C12.133 24.2182 12.5301 24.0534 12.823 23.7605C13.1159 23.4676 13.2807 23.0705 13.2812 22.6562V1.5625C13.2807 1.14827 13.1159 0.751153 12.823 0.458245C12.5301 0.165337 12.133 0.000542615 11.7188 0ZM8.46875 0.78125L8.24902 1.5625H4.99268L4.79736 0.78125H8.46875ZM12.5 22.6562C12.4997 22.8634 12.4173 23.0619 12.2709 23.2084C12.1244 23.3548 11.9259 23.4372 11.7188 23.4375H1.5625C1.35538 23.4372 1.15683 23.3548 1.01037 23.2084C0.863918 23.0619 0.781521 22.8634 0.78125 22.6562V1.5625C0.781521 1.35538 0.863918 1.15683 1.01037 1.01037C1.15683 0.863918 1.35538 0.781521 1.5625 0.78125H3.9917L4.30859 2.04785C4.32972 2.13236 4.37848 2.20738 4.44713 2.261C4.51579 2.31461 4.60039 2.34374 4.6875 2.34375H8.54492C8.63005 2.34375 8.71285 2.31594 8.78071 2.26455C8.84858 2.21317 8.89781 2.14102 8.9209 2.05908L9.28027 0.78125H11.7188C11.9259 0.781521 12.1244 0.863918 12.2709 1.01037C12.4173 1.15683 12.4997 1.35538 12.5 1.5625V22.6562Z" fill="black"/>
</svg>
